<mxfile host="app.diagrams.net" modified="2021-06-23T11:18:09.539Z" agent="5.0 (Windows NT 10.0; Win64; x64) AppleWebKit/537.36 (KHTML, like Gecko) Chrome/91.0.4472.114 Safari/537.36" etag="Qd2Ci-s0OtFEicLdIsuf" version="14.8.0" type="github">
  <diagram id="C5RBs43oDa-KdzZeNtuy" name="Page-1">
    <mxGraphModel dx="2031" dy="2256" grid="1" gridSize="10" guides="1" tooltips="1" connect="1" arrows="1" fold="1" page="1" pageScale="1" pageWidth="827" pageHeight="1169" math="0" shadow="0">
      <root>
        <mxCell id="WIyWlLk6GJQsqaUBKTNV-0" />
        <mxCell id="WIyWlLk6GJQsqaUBKTNV-1" parent="WIyWlLk6GJQsqaUBKTNV-0" />
        <mxCell id="241Hv2cpjhHZRPJgGm50-2" style="edgeStyle=orthogonalEdgeStyle;rounded=0;orthogonalLoop=1;jettySize=auto;html=1;exitX=0.25;exitY=0;exitDx=0;exitDy=0;entryX=0.5;entryY=1;entryDx=0;entryDy=0;" edge="1" parent="WIyWlLk6GJQsqaUBKTNV-1" source="241Hv2cpjhHZRPJgGm50-0" target="241Hv2cpjhHZRPJgGm50-1">
          <mxGeometry relative="1" as="geometry" />
        </mxCell>
        <mxCell id="241Hv2cpjhHZRPJgGm50-9" style="edgeStyle=orthogonalEdgeStyle;rounded=0;orthogonalLoop=1;jettySize=auto;html=1;exitX=0.25;exitY=1;exitDx=0;exitDy=0;" edge="1" parent="WIyWlLk6GJQsqaUBKTNV-1" source="241Hv2cpjhHZRPJgGm50-0" target="241Hv2cpjhHZRPJgGm50-8">
          <mxGeometry relative="1" as="geometry" />
        </mxCell>
        <mxCell id="241Hv2cpjhHZRPJgGm50-19" style="edgeStyle=orthogonalEdgeStyle;rounded=0;orthogonalLoop=1;jettySize=auto;html=1;exitX=0.75;exitY=0;exitDx=0;exitDy=0;" edge="1" parent="WIyWlLk6GJQsqaUBKTNV-1" source="241Hv2cpjhHZRPJgGm50-0" target="241Hv2cpjhHZRPJgGm50-18">
          <mxGeometry relative="1" as="geometry" />
        </mxCell>
        <mxCell id="241Hv2cpjhHZRPJgGm50-22" style="edgeStyle=orthogonalEdgeStyle;rounded=0;orthogonalLoop=1;jettySize=auto;html=1;exitX=0.75;exitY=1;exitDx=0;exitDy=0;entryX=0.5;entryY=0;entryDx=0;entryDy=0;" edge="1" parent="WIyWlLk6GJQsqaUBKTNV-1" source="241Hv2cpjhHZRPJgGm50-0" target="241Hv2cpjhHZRPJgGm50-21">
          <mxGeometry relative="1" as="geometry" />
        </mxCell>
        <mxCell id="241Hv2cpjhHZRPJgGm50-0" value="QB" style="rounded=1;whiteSpace=wrap;html=1;" vertex="1" parent="WIyWlLk6GJQsqaUBKTNV-1">
          <mxGeometry x="230" y="515" width="100" height="50" as="geometry" />
        </mxCell>
        <mxCell id="241Hv2cpjhHZRPJgGm50-1" value="调研" style="rounded=1;whiteSpace=wrap;html=1;" vertex="1" parent="WIyWlLk6GJQsqaUBKTNV-1">
          <mxGeometry x="80" y="415" width="100" height="50" as="geometry" />
        </mxCell>
        <mxCell id="241Hv2cpjhHZRPJgGm50-3" value="功能普查" style="text;html=1;strokeColor=none;fillColor=none;align=center;verticalAlign=middle;whiteSpace=wrap;rounded=0;" vertex="1" parent="WIyWlLk6GJQsqaUBKTNV-1">
          <mxGeometry y="395" width="50" height="20" as="geometry" />
        </mxCell>
        <mxCell id="241Hv2cpjhHZRPJgGm50-5" value="" style="shape=curlyBracket;whiteSpace=wrap;html=1;rounded=1;flipH=1;" vertex="1" parent="WIyWlLk6GJQsqaUBKTNV-1">
          <mxGeometry x="60" y="380" width="20" height="120" as="geometry" />
        </mxCell>
        <mxCell id="241Hv2cpjhHZRPJgGm50-6" value="市场背景" style="text;html=1;strokeColor=none;fillColor=none;align=center;verticalAlign=middle;whiteSpace=wrap;rounded=0;" vertex="1" parent="WIyWlLk6GJQsqaUBKTNV-1">
          <mxGeometry y="430" width="50" height="20" as="geometry" />
        </mxCell>
        <mxCell id="241Hv2cpjhHZRPJgGm50-7" value="应用实现" style="text;html=1;strokeColor=none;fillColor=none;align=center;verticalAlign=middle;whiteSpace=wrap;rounded=0;" vertex="1" parent="WIyWlLk6GJQsqaUBKTNV-1">
          <mxGeometry y="465" width="50" height="20" as="geometry" />
        </mxCell>
        <mxCell id="241Hv2cpjhHZRPJgGm50-8" value="构成" style="rounded=1;whiteSpace=wrap;html=1;" vertex="1" parent="WIyWlLk6GJQsqaUBKTNV-1">
          <mxGeometry x="80" y="625" width="100" height="50" as="geometry" />
        </mxCell>
        <mxCell id="241Hv2cpjhHZRPJgGm50-11" value="" style="shape=curlyBracket;whiteSpace=wrap;html=1;rounded=1;flipH=1;rotation=-90;size=0.5;" vertex="1" parent="WIyWlLk6GJQsqaUBKTNV-1">
          <mxGeometry x="120" y="595" width="20" height="175" as="geometry" />
        </mxCell>
        <mxCell id="241Hv2cpjhHZRPJgGm50-12" value="UI设计" style="rounded=1;whiteSpace=wrap;html=1;" vertex="1" parent="WIyWlLk6GJQsqaUBKTNV-1">
          <mxGeometry x="35" y="725" width="40" height="100" as="geometry" />
        </mxCell>
        <mxCell id="241Hv2cpjhHZRPJgGm50-15" value="腾讯云服务器" style="rounded=1;whiteSpace=wrap;html=1;" vertex="1" parent="WIyWlLk6GJQsqaUBKTNV-1">
          <mxGeometry x="85" y="725" width="40" height="100" as="geometry" />
        </mxCell>
        <mxCell id="241Hv2cpjhHZRPJgGm50-16" value="mysql" style="rounded=1;whiteSpace=wrap;html=1;" vertex="1" parent="WIyWlLk6GJQsqaUBKTNV-1">
          <mxGeometry x="135" y="725" width="40" height="100" as="geometry" />
        </mxCell>
        <mxCell id="241Hv2cpjhHZRPJgGm50-17" value="API" style="rounded=1;whiteSpace=wrap;html=1;" vertex="1" parent="WIyWlLk6GJQsqaUBKTNV-1">
          <mxGeometry x="185" y="725" width="40" height="100" as="geometry" />
        </mxCell>
        <mxCell id="241Hv2cpjhHZRPJgGm50-18" value="设计" style="rounded=1;whiteSpace=wrap;html=1;" vertex="1" parent="WIyWlLk6GJQsqaUBKTNV-1">
          <mxGeometry x="390" y="370" width="100" height="50" as="geometry" />
        </mxCell>
        <mxCell id="241Hv2cpjhHZRPJgGm50-20" value="" style="shape=curlyBracket;whiteSpace=wrap;html=1;rounded=1;" vertex="1" parent="WIyWlLk6GJQsqaUBKTNV-1">
          <mxGeometry x="490" y="117.5" width="20" height="545" as="geometry" />
        </mxCell>
        <mxCell id="241Hv2cpjhHZRPJgGm50-21" value="测试" style="rounded=1;whiteSpace=wrap;html=1;" vertex="1" parent="WIyWlLk6GJQsqaUBKTNV-1">
          <mxGeometry x="390" y="625" width="100" height="50" as="geometry" />
        </mxCell>
        <mxCell id="241Hv2cpjhHZRPJgGm50-23" value="" style="shape=curlyBracket;whiteSpace=wrap;html=1;rounded=1;flipH=1;rotation=-90;size=0.5;" vertex="1" parent="WIyWlLk6GJQsqaUBKTNV-1">
          <mxGeometry x="430" y="595" width="20" height="175" as="geometry" />
        </mxCell>
        <mxCell id="241Hv2cpjhHZRPJgGm50-24" value="单机功能测试" style="rounded=1;whiteSpace=wrap;html=1;" vertex="1" parent="WIyWlLk6GJQsqaUBKTNV-1">
          <mxGeometry x="370" y="725" width="40" height="100" as="geometry" />
        </mxCell>
        <mxCell id="241Hv2cpjhHZRPJgGm50-25" value="多机功能测试" style="rounded=1;whiteSpace=wrap;html=1;" vertex="1" parent="WIyWlLk6GJQsqaUBKTNV-1">
          <mxGeometry x="470" y="725" width="40" height="100" as="geometry" />
        </mxCell>
        <mxCell id="241Hv2cpjhHZRPJgGm50-27" value="消息页" style="text;html=1;strokeColor=none;fillColor=none;align=center;verticalAlign=middle;whiteSpace=wrap;rounded=0;" vertex="1" parent="WIyWlLk6GJQsqaUBKTNV-1">
          <mxGeometry x="515" y="110" width="50" height="20" as="geometry" />
        </mxCell>
        <mxCell id="241Hv2cpjhHZRPJgGm50-28" value="拍一拍&lt;span style=&quot;color: rgba(0 , 0 , 0 , 0) ; font-family: monospace ; font-size: 0px&quot;&gt;%3CmxGraphModel%3E%3Croot%3E%3CmxCell%20id%3D%220%22%2F%3E%3CmxCell%20id%3D%221%22%20parent%3D%220%22%2F%3E%3CmxCell%20id%3D%222%22%20value%3D%22%E9%80%9A%E8%AE%AF%E9%A1%B5%22%20style%3D%22text%3Bhtml%3D1%3BstrokeColor%3Dnone%3BfillColor%3Dnone%3Balign%3Dcenter%3BverticalAlign%3Dmiddle%3BwhiteSpace%3Dwrap%3Brounded%3D0%3B%22%20vertex%3D%221%22%20parent%3D%221%22%3E%3CmxGeometry%20x%3D%22540%22%20y%3D%22235%22%20width%3D%2250%22%20height%3D%2220%22%20as%3D%22geometry%22%2F%3E%3C%2FmxCell%3E%3C%2Froot%3E%3C%2FmxGraphModel%3E&lt;/span&gt;" style="text;html=1;strokeColor=none;fillColor=none;align=center;verticalAlign=middle;whiteSpace=wrap;rounded=0;" vertex="1" parent="WIyWlLk6GJQsqaUBKTNV-1">
          <mxGeometry x="685" y="130" width="50" height="20" as="geometry" />
        </mxCell>
        <mxCell id="241Hv2cpjhHZRPJgGm50-29" value="视频页" style="text;html=1;strokeColor=none;fillColor=none;align=center;verticalAlign=middle;whiteSpace=wrap;rounded=0;" vertex="1" parent="WIyWlLk6GJQsqaUBKTNV-1">
          <mxGeometry x="515" y="485" width="50" height="20" as="geometry" />
        </mxCell>
        <mxCell id="241Hv2cpjhHZRPJgGm50-30" value="个人页" style="text;html=1;strokeColor=none;fillColor=none;align=center;verticalAlign=middle;whiteSpace=wrap;rounded=0;" vertex="1" parent="WIyWlLk6GJQsqaUBKTNV-1">
          <mxGeometry x="520" y="630" width="50" height="20" as="geometry" />
        </mxCell>
        <mxCell id="241Hv2cpjhHZRPJgGm50-31" value="" style="shape=curlyBracket;whiteSpace=wrap;html=1;rounded=1;" vertex="1" parent="WIyWlLk6GJQsqaUBKTNV-1">
          <mxGeometry x="575" y="40" width="20" height="160" as="geometry" />
        </mxCell>
        <mxCell id="241Hv2cpjhHZRPJgGm50-32" value="消息列表" style="text;html=1;strokeColor=none;fillColor=none;align=center;verticalAlign=middle;whiteSpace=wrap;rounded=0;" vertex="1" parent="WIyWlLk6GJQsqaUBKTNV-1">
          <mxGeometry x="585" y="35" width="70" height="20" as="geometry" />
        </mxCell>
        <mxCell id="241Hv2cpjhHZRPJgGm50-34" value="" style="shape=curlyBracket;whiteSpace=wrap;html=1;rounded=1;" vertex="1" parent="WIyWlLk6GJQsqaUBKTNV-1">
          <mxGeometry x="655" y="-20" width="20" height="130" as="geometry" />
        </mxCell>
        <mxCell id="241Hv2cpjhHZRPJgGm50-35" value="对话页" style="text;html=1;strokeColor=none;fillColor=none;align=center;verticalAlign=middle;whiteSpace=wrap;rounded=0;" vertex="1" parent="WIyWlLk6GJQsqaUBKTNV-1">
          <mxGeometry x="595" y="180" width="50" height="20" as="geometry" />
        </mxCell>
        <mxCell id="241Hv2cpjhHZRPJgGm50-36" value="单人聊天" style="text;html=1;strokeColor=none;fillColor=none;align=center;verticalAlign=middle;whiteSpace=wrap;rounded=0;" vertex="1" parent="WIyWlLk6GJQsqaUBKTNV-1">
          <mxGeometry x="675" y="-20" width="60" height="20" as="geometry" />
        </mxCell>
        <mxCell id="241Hv2cpjhHZRPJgGm50-37" value="群聊&lt;span style=&quot;color: rgba(0 , 0 , 0 , 0) ; font-family: monospace ; font-size: 0px&quot;&gt;%3CmxGraphModel%3E%3Croot%3E%3CmxCell%20id%3D%220%22%2F%3E%3CmxCell%20id%3D%221%22%20parent%3D%220%22%2F%3E%3CmxCell%20id%3D%222%22%20value%3D%22%E9%80%9A%E8%AE%AF%E9%A1%B5%22%20style%3D%22text%3Bhtml%3D1%3BstrokeColor%3Dnone%3BfillColor%3Dnone%3Balign%3Dcenter%3BverticalAlign%3Dmiddle%3BwhiteSpace%3Dwrap%3Brounded%3D0%3B%22%20vertex%3D%221%22%20parent%3D%221%22%3E%3CmxGeometry%20x%3D%22540%22%20y%3D%22235%22%20width%3D%2250%22%20height%3D%2220%22%20as%3D%22geometry%22%2F%3E%3C%2FmxCell%3E%3C%2Froot%3E%3C%2FmxGraphModel%3E&lt;/span&gt;" style="text;html=1;strokeColor=none;fillColor=none;align=center;verticalAlign=middle;whiteSpace=wrap;rounded=0;" vertex="1" parent="WIyWlLk6GJQsqaUBKTNV-1">
          <mxGeometry x="675" y="5" width="50" height="20" as="geometry" />
        </mxCell>
        <mxCell id="241Hv2cpjhHZRPJgGm50-38" value="扫一扫" style="text;html=1;strokeColor=none;fillColor=none;align=center;verticalAlign=middle;whiteSpace=wrap;rounded=0;" vertex="1" parent="WIyWlLk6GJQsqaUBKTNV-1">
          <mxGeometry x="675" y="35" width="50" height="20" as="geometry" />
        </mxCell>
        <mxCell id="241Hv2cpjhHZRPJgGm50-39" value="面对面建群" style="text;html=1;strokeColor=none;fillColor=none;align=center;verticalAlign=middle;whiteSpace=wrap;rounded=0;" vertex="1" parent="WIyWlLk6GJQsqaUBKTNV-1">
          <mxGeometry x="675" y="65" width="70" height="20" as="geometry" />
        </mxCell>
        <mxCell id="241Hv2cpjhHZRPJgGm50-40" value="二维码" style="text;html=1;strokeColor=none;fillColor=none;align=center;verticalAlign=middle;whiteSpace=wrap;rounded=0;" vertex="1" parent="WIyWlLk6GJQsqaUBKTNV-1">
          <mxGeometry x="675" y="95" width="50" height="20" as="geometry" />
        </mxCell>
        <mxCell id="241Hv2cpjhHZRPJgGm50-41" value="" style="shape=curlyBracket;whiteSpace=wrap;html=1;rounded=1;" vertex="1" parent="WIyWlLk6GJQsqaUBKTNV-1">
          <mxGeometry x="655" y="130" width="20" height="120" as="geometry" />
        </mxCell>
        <mxCell id="241Hv2cpjhHZRPJgGm50-46" value="各类文件发送" style="text;html=1;strokeColor=none;fillColor=none;align=center;verticalAlign=middle;whiteSpace=wrap;rounded=0;" vertex="1" parent="WIyWlLk6GJQsqaUBKTNV-1">
          <mxGeometry x="685" y="165" width="80" height="20" as="geometry" />
        </mxCell>
        <mxCell id="241Hv2cpjhHZRPJgGm50-47" value="音视频通话" style="text;html=1;strokeColor=none;fillColor=none;align=center;verticalAlign=middle;whiteSpace=wrap;rounded=0;" vertex="1" parent="WIyWlLk6GJQsqaUBKTNV-1">
          <mxGeometry x="685" y="195" width="80" height="20" as="geometry" />
        </mxCell>
        <mxCell id="241Hv2cpjhHZRPJgGm50-48" value="名片" style="text;html=1;strokeColor=none;fillColor=none;align=center;verticalAlign=middle;whiteSpace=wrap;rounded=0;" vertex="1" parent="WIyWlLk6GJQsqaUBKTNV-1">
          <mxGeometry x="685" y="230" width="50" height="20" as="geometry" />
        </mxCell>
        <mxCell id="241Hv2cpjhHZRPJgGm50-50" value="通讯页" style="text;html=1;strokeColor=none;fillColor=none;align=center;verticalAlign=middle;whiteSpace=wrap;rounded=0;" vertex="1" parent="WIyWlLk6GJQsqaUBKTNV-1">
          <mxGeometry x="515" y="310" width="50" height="20" as="geometry" />
        </mxCell>
        <mxCell id="241Hv2cpjhHZRPJgGm50-52" value="" style="shape=curlyBracket;whiteSpace=wrap;html=1;rounded=1;" vertex="1" parent="WIyWlLk6GJQsqaUBKTNV-1">
          <mxGeometry x="575" y="260" width="20" height="120" as="geometry" />
        </mxCell>
        <mxCell id="241Hv2cpjhHZRPJgGm50-53" value="联系人列表" style="text;html=1;strokeColor=none;fillColor=none;align=center;verticalAlign=middle;whiteSpace=wrap;rounded=0;" vertex="1" parent="WIyWlLk6GJQsqaUBKTNV-1">
          <mxGeometry x="595" y="260" width="70" height="20" as="geometry" />
        </mxCell>
        <mxCell id="241Hv2cpjhHZRPJgGm50-54" value="黑名单&lt;span style=&quot;color: rgba(0 , 0 , 0 , 0) ; font-family: monospace ; font-size: 0px&quot;&gt;%3CmxGraphModel%3E%3Croot%3E%3CmxCell%20id%3D%220%22%2F%3E%3CmxCell%20id%3D%221%22%20parent%3D%220%22%2F%3E%3CmxCell%20id%3D%222%22%20value%3D%22%E9%80%9A%E8%AE%AF%E9%A1%B5%22%20style%3D%22text%3Bhtml%3D1%3BstrokeColor%3Dnone%3BfillColor%3Dnone%3Balign%3Dcenter%3BverticalAlign%3Dmiddle%3BwhiteSpace%3Dwrap%3Brounded%3D0%3B%22%20vertex%3D%221%22%20parent%3D%221%22%3E%3CmxGeometry%20x%3D%22540%22%20y%3D%22235%22%20width%3D%2250%22%20height%3D%2220%22%20as%3D%22geometry%22%2F%3E%3C%2FmxCell%3E%3C%2Froot%3E%3C%2FmxGraphModel%3E&lt;/span&gt;" style="text;html=1;strokeColor=none;fillColor=none;align=center;verticalAlign=middle;whiteSpace=wrap;rounded=0;" vertex="1" parent="WIyWlLk6GJQsqaUBKTNV-1">
          <mxGeometry x="595" y="315" width="50" height="20" as="geometry" />
        </mxCell>
        <mxCell id="241Hv2cpjhHZRPJgGm50-55" value="群聊列表" style="text;html=1;strokeColor=none;fillColor=none;align=center;verticalAlign=middle;whiteSpace=wrap;rounded=0;" vertex="1" parent="WIyWlLk6GJQsqaUBKTNV-1">
          <mxGeometry x="595" y="360" width="70" height="20" as="geometry" />
        </mxCell>
        <mxCell id="241Hv2cpjhHZRPJgGm50-58" value="" style="shape=curlyBracket;whiteSpace=wrap;html=1;rounded=1;" vertex="1" parent="WIyWlLk6GJQsqaUBKTNV-1">
          <mxGeometry x="575" y="410" width="20" height="170" as="geometry" />
        </mxCell>
        <mxCell id="241Hv2cpjhHZRPJgGm50-59" value="视频内容页" style="text;html=1;strokeColor=none;fillColor=none;align=center;verticalAlign=middle;whiteSpace=wrap;rounded=0;" vertex="1" parent="WIyWlLk6GJQsqaUBKTNV-1">
          <mxGeometry x="595" y="395" width="70" height="20" as="geometry" />
        </mxCell>
        <mxCell id="241Hv2cpjhHZRPJgGm50-60" value="" style="shape=curlyBracket;whiteSpace=wrap;html=1;rounded=1;size=0.5;" vertex="1" parent="WIyWlLk6GJQsqaUBKTNV-1">
          <mxGeometry x="665" y="375" width="20" height="60" as="geometry" />
        </mxCell>
        <mxCell id="241Hv2cpjhHZRPJgGm50-61" value="" style="shape=curlyBracket;whiteSpace=wrap;html=1;rounded=1;size=0.5;" vertex="1" parent="WIyWlLk6GJQsqaUBKTNV-1">
          <mxGeometry x="580" y="600" width="20" height="80" as="geometry" />
        </mxCell>
        <mxCell id="241Hv2cpjhHZRPJgGm50-62" value="个人信息" style="text;html=1;strokeColor=none;fillColor=none;align=center;verticalAlign=middle;whiteSpace=wrap;rounded=0;" vertex="1" parent="WIyWlLk6GJQsqaUBKTNV-1">
          <mxGeometry x="610" y="595" width="60" height="20" as="geometry" />
        </mxCell>
        <mxCell id="241Hv2cpjhHZRPJgGm50-63" value="信息编辑" style="text;html=1;strokeColor=none;fillColor=none;align=center;verticalAlign=middle;whiteSpace=wrap;rounded=0;" vertex="1" parent="WIyWlLk6GJQsqaUBKTNV-1">
          <mxGeometry x="610" y="670" width="60" height="20" as="geometry" />
        </mxCell>
        <mxCell id="241Hv2cpjhHZRPJgGm50-64" value="滚动横幅" style="text;html=1;strokeColor=none;fillColor=none;align=center;verticalAlign=middle;whiteSpace=wrap;rounded=0;" vertex="1" parent="WIyWlLk6GJQsqaUBKTNV-1">
          <mxGeometry x="686.25" y="370" width="65" height="20" as="geometry" />
        </mxCell>
        <mxCell id="241Hv2cpjhHZRPJgGm50-65" value="推荐视频" style="text;html=1;strokeColor=none;fillColor=none;align=center;verticalAlign=middle;whiteSpace=wrap;rounded=0;" vertex="1" parent="WIyWlLk6GJQsqaUBKTNV-1">
          <mxGeometry x="692.5" y="425" width="52.5" height="20" as="geometry" />
        </mxCell>
        <mxCell id="241Hv2cpjhHZRPJgGm50-66" value="视频搜索页" style="text;html=1;strokeColor=none;fillColor=none;align=center;verticalAlign=middle;whiteSpace=wrap;rounded=0;" vertex="1" parent="WIyWlLk6GJQsqaUBKTNV-1">
          <mxGeometry x="585" y="485" width="90" height="20" as="geometry" />
        </mxCell>
        <mxCell id="241Hv2cpjhHZRPJgGm50-68" value="" style="shape=curlyBracket;whiteSpace=wrap;html=1;rounded=1;size=0.5;" vertex="1" parent="WIyWlLk6GJQsqaUBKTNV-1">
          <mxGeometry x="666.25" y="465" width="20" height="60" as="geometry" />
        </mxCell>
        <mxCell id="241Hv2cpjhHZRPJgGm50-69" value="搜索" style="text;html=1;strokeColor=none;fillColor=none;align=center;verticalAlign=middle;whiteSpace=wrap;rounded=0;" vertex="1" parent="WIyWlLk6GJQsqaUBKTNV-1">
          <mxGeometry x="692.5" y="460" width="52.5" height="20" as="geometry" />
        </mxCell>
        <mxCell id="241Hv2cpjhHZRPJgGm50-70" value="热搜" style="text;html=1;strokeColor=none;fillColor=none;align=center;verticalAlign=middle;whiteSpace=wrap;rounded=0;" vertex="1" parent="WIyWlLk6GJQsqaUBKTNV-1">
          <mxGeometry x="692.5" y="515" width="52.5" height="20" as="geometry" />
        </mxCell>
        <mxCell id="241Hv2cpjhHZRPJgGm50-71" value="视频播放页" style="text;html=1;strokeColor=none;fillColor=none;align=center;verticalAlign=middle;whiteSpace=wrap;rounded=0;" vertex="1" parent="WIyWlLk6GJQsqaUBKTNV-1">
          <mxGeometry x="585" y="565" width="90" height="20" as="geometry" />
        </mxCell>
        <mxCell id="241Hv2cpjhHZRPJgGm50-72" value="" style="shape=curlyBracket;whiteSpace=wrap;html=1;rounded=1;size=0.5;" vertex="1" parent="WIyWlLk6GJQsqaUBKTNV-1">
          <mxGeometry x="670" y="545" width="20" height="60" as="geometry" />
        </mxCell>
        <mxCell id="241Hv2cpjhHZRPJgGm50-73" value="小B站" style="text;html=1;strokeColor=none;fillColor=none;align=center;verticalAlign=middle;whiteSpace=wrap;rounded=0;" vertex="1" parent="WIyWlLk6GJQsqaUBKTNV-1">
          <mxGeometry x="692.5" y="535" width="52.5" height="20" as="geometry" />
        </mxCell>
        <mxCell id="241Hv2cpjhHZRPJgGm50-74" value="相关推荐" style="text;html=1;strokeColor=none;fillColor=none;align=center;verticalAlign=middle;whiteSpace=wrap;rounded=0;" vertex="1" parent="WIyWlLk6GJQsqaUBKTNV-1">
          <mxGeometry x="692.5" y="595" width="52.5" height="20" as="geometry" />
        </mxCell>
      </root>
    </mxGraphModel>
  </diagram>
</mxfile>
